<?xml version="1.0" encoding="UTF-8"?>
<!-- Created with Inkscape (http://www.inkscape.org/) -->
<svg width="12.995mm" height="13.571mm" version="1.1" viewBox="0 0 12.995 13.571" xmlns="http://www.w3.org/2000/svg" xmlns:cc="http://creativecommons.org/ns#" xmlns:dc="http://purl.org/dc/elements/1.1/" xmlns:rdf="http://www.w3.org/1999/02/22-rdf-syntax-ns#">
 <metadata>
  <rdf:RDF>
   <cc:Work rdf:about="">
    <dc:format>image/svg+xml</dc:format>
    <dc:type rdf:resource="http://purl.org/dc/dcmitype/StillImage"/>
    <dc:title/>
   </cc:Work>
  </rdf:RDF>
 </metadata>
 <g transform="translate(-.093392 -283.36)">
  <path d="m6.5907 283.36a6.4973 6.7856 0 0 0-6.4973 6.7856 6.4973 6.7856 0 0 0 6.4973 6.7856 6.4973 6.7856 0 0 0 6.4973-6.7856 6.4973 6.7856 0 0 0-6.4973-6.7856zm0 .43976a6.0764 6.3459 0 0 1 6.0766 6.3459 6.0764 6.3459 0 0 1-6.0766 6.3459 6.0764 6.3459 0 0 1-6.0766-6.3459 6.0764 6.3459 0 0 1 6.0766-6.3459zm-1.2495 5.4333-.28835.28784 1.5379 1.5379.28784-.28784 1.2495-1.25-.28784-.28784-1.2495 1.2501z" opacity=".971"/>
 </g>
</svg>
