<?xml version="1.0" encoding="UTF-8" standalone="no"?>
<svg
   xmlns:dc="http://purl.org/dc/elements/1.1/"
   xmlns:cc="http://creativecommons.org/ns#"
   xmlns:rdf="http://www.w3.org/1999/02/22-rdf-syntax-ns#"
   xmlns:svg="http://www.w3.org/2000/svg"
   xmlns="http://www.w3.org/2000/svg"
   id="svg4673"
   version="1.1"
   viewBox="0 0 26 37"
   height="37mm"
   width="26mm">
  <defs
     id="defs4667" />
  <metadata
     id="metadata4670">
    <rdf:RDF>
      <cc:Work
         rdf:about="">
        <dc:format>image/svg+xml</dc:format>
        <dc:type
           rdf:resource="http://purl.org/dc/dcmitype/StillImage" />
        <dc:title></dc:title>
      </cc:Work>
    </rdf:RDF>
  </metadata>
  <g
     transform="translate(0,-260)"
     id="layer1">
    <path
       id="path3817"
       d="m 11.600742,270.66996 c -1.101749,-0.0314 -2.1285119,0.61891 -2.5977717,1.58388 -0.4678494,0.96207 -0.3527742,2.24989 0.77928,3.41788 l 0.00212,0.002 3.8106187,3.81217 3.797187,-3.79667 c 0.0019,-0.002 0.0037,-0.004 0.0057,-0.006 1.451467,-1.25452 1.289692,-3.03807 0.341582,-4.08605 -0.474943,-0.52498 -1.145979,-0.87765 -1.900142,-0.90072 -0.899211,0.089 -1.594533,0.45846 -2.158008,0.90433 -0.05069,0.0361 -0.120322,0.0306 -0.164333,-0.0134 -0.590936,-0.58471 -1.262954,-0.89913 -1.916163,-0.91777 z m -0.0098,0.3452 c 0.0052,2.6e-4 0.01034,0.001 0.0155,0.002 0.948407,0.14484 1.460521,0.57114 1.990577,1.09399 0.615997,-0.57523 1.444053,-1.0791 2.228286,-1.06815 7.94e-4,0 0.0013,0 0.0021,0 0.653646,0.02 1.236337,0.32312 1.654165,0.78497 0.416798,0.4607 0.675693,1.06778 0.660424,1.70893 -0.01527,0.64116 -0.307864,1.31121 -0.968934,1.88258 l -0.0021,0.002 -3.484025,3.48454 c -0.0497,0.0494 -0.13013,0.0494 -0.179835,0 L 10.03236,275.4312 c -7.94e-4,-5.3e-4 -0.0013,-10e-4 -0.0021,-0.002 -1.0541184,-1.08758 -1.1257914,-2.19031 -0.7188199,-3.02721 0.4087548,-0.84054 1.3203029,-1.41382 2.2794489,-1.38647 z"
       style="color:#000000;font-style:normal;font-variant:normal;font-weight:normal;font-stretch:normal;font-size:medium;line-height:normal;font-family:sans-serif;font-variant-ligatures:normal;font-variant-position:normal;font-variant-caps:normal;font-variant-numeric:normal;font-variant-alternates:normal;font-feature-settings:normal;text-indent:0;text-align:start;text-decoration:none;text-decoration-line:none;text-decoration-style:solid;text-decoration-color:#000000;letter-spacing:normal;word-spacing:normal;text-transform:none;writing-mode:lr-tb;direction:ltr;text-orientation:mixed;dominant-baseline:auto;baseline-shift:baseline;text-anchor:start;white-space:normal;shape-padding:0;clip-rule:nonzero;display:inline;overflow:visible;visibility:visible;opacity:1;isolation:auto;mix-blend-mode:normal;color-interpolation:sRGB;color-interpolation-filters:linearRGB;solid-color:#000000;solid-opacity:1;vector-effect:none;fill:#000000;fill-opacity:1;fill-rule:nonzero;stroke:none;stroke-width:0.60000002;stroke-linecap:butt;stroke-linejoin:miter;stroke-miterlimit:4;stroke-dasharray:none;stroke-dashoffset:0;stroke-opacity:1;color-rendering:auto;image-rendering:auto;shape-rendering:auto;text-rendering:auto;enable-background:accumulate" />
  </g>
</svg>
