<?xml version="1.0" encoding="UTF-8" standalone="no"?>
<svg
   xmlns:dc="http://purl.org/dc/elements/1.1/"
   xmlns:cc="http://creativecommons.org/ns#"
   xmlns:rdf="http://www.w3.org/1999/02/22-rdf-syntax-ns#"
   xmlns:svg="http://www.w3.org/2000/svg"
   xmlns="http://www.w3.org/2000/svg"
   id="svg4673"
   version="1.1"
   viewBox="0 0 26 37"
   height="37mm"
   width="26mm">
  <defs
     id="defs4667" />
  <metadata
     id="metadata4670">
    <rdf:RDF>
      <cc:Work
         rdf:about="">
        <dc:format>image/svg+xml</dc:format>
        <dc:type
           rdf:resource="http://purl.org/dc/dcmitype/StillImage" />
        <dc:title></dc:title>
      </cc:Work>
    </rdf:RDF>
  </metadata>
  <g
     transform="translate(0,-260)"
     id="layer1">
    <path
       id="path4649"
       d="m 11.245566,265.88732 c -2.8295598,0 -5.1288848,2.29725 -5.1288848,5.12681 0,2.82956 2.299325,5.12682 5.1288848,5.12682 2.82956,0 5.127336,-2.29726 5.127336,-5.12682 0,-2.82956 -2.297776,-5.12681 -5.127336,-5.12681 z m 0,0.41806 c 2.603164,0 4.709274,2.1056 4.709274,4.70875 0,2.60317 -2.10611,4.70928 -4.709274,4.70928 -2.6031608,0 -4.7087548,-2.10611 -4.7087548,-4.70928 0,-2.60315 2.105594,-4.70875 4.7087548,-4.70875 z m -0.135393,1.28984 v 3.78272 H 8.6834492 v 0.47955 h 2.4267238 0.479558 v -0.47955 -3.78272 z"
       style="color:#000000;font-style:normal;font-variant:normal;font-weight:normal;font-stretch:normal;font-size:medium;line-height:normal;font-family:sans-serif;font-variant-ligatures:normal;font-variant-position:normal;font-variant-caps:normal;font-variant-numeric:normal;font-variant-alternates:normal;font-feature-settings:normal;text-indent:0;text-align:start;text-decoration:none;text-decoration-line:none;text-decoration-style:solid;text-decoration-color:#000000;letter-spacing:normal;word-spacing:normal;text-transform:none;writing-mode:lr-tb;direction:ltr;text-orientation:mixed;dominant-baseline:auto;baseline-shift:baseline;text-anchor:start;white-space:normal;shape-padding:0;clip-rule:nonzero;display:inline;overflow:visible;visibility:visible;opacity:1;isolation:auto;mix-blend-mode:normal;color-interpolation:sRGB;color-interpolation-filters:linearRGB;solid-color:#000000;solid-opacity:1;vector-effect:none;fill:#000000;fill-opacity:1;fill-rule:nonzero;stroke:none;stroke-width:0.41891289;stroke-linecap:butt;stroke-linejoin:miter;stroke-miterlimit:4;stroke-dasharray:none;stroke-dashoffset:0;stroke-opacity:1;color-rendering:auto;image-rendering:auto;shape-rendering:auto;text-rendering:auto;enable-background:accumulate" />
  </g>
</svg>
