<svg width="26mm" height="37mm" version="1.1" viewBox="0 0 26 37" xmlns="http://www.w3.org/2000/svg">
 <path d="m3.704 28v1.058h-3.704v7.938h10.05v-7.938h-3.704v-1.058zm0.2646 0.2646h2.117v0.7938h-2.117zm-3.704 1.058h9.525c-3.174e-4 1.134 1.685e-4 2.325 5.291e-4 3.44h-3.44c-0.00106-0.2634-5.292e-4 -0.5294-5.292e-4 -0.7938h-2.646v0.8036h-3.44zm3.704 2.91h2.117v1.588h-2.117zm2.382 0.7938h3.44c-5.292e-4 1.269-5.557e-4 2.607-5.292e-4 3.704h-9.525v-3.694h3.44v1.049h2.646c-5.027e-4 -0.3472 4.233e-4 -0.7282 5.292e-4 -1.058z" style="stroke-width:.2646"/>
</svg>
