<?xml version="1.0" encoding="UTF-8"?>
<svg width="9.7253mm" height="8.817mm" version="1.1" viewBox="0 0 9.7253 8.817" xmlns="http://www.w3.org/2000/svg" xmlns:cc="http://creativecommons.org/ns#" xmlns:dc="http://purl.org/dc/elements/1.1/" xmlns:rdf="http://www.w3.org/1999/02/22-rdf-syntax-ns#">
 <metadata>
  <rdf:RDF>
   <cc:Work rdf:about="">
    <dc:format>image/svg+xml</dc:format>
    <dc:type rdf:resource="http://purl.org/dc/dcmitype/StillImage"/>
    <dc:title/>
   </cc:Work>
  </rdf:RDF>
 </metadata>
 <g transform="translate(-8.7445 -270.67)">
  <path d="m11.601 270.67c-1.1017-0.0314-2.1285 0.61891-2.5978 1.5839-0.46785 0.96207-0.35277 2.2499 0.77928 3.4179l0.00212 2e-3 3.8106 3.8122 3.7972-3.7967c0.0019-2e-3 0.0037-4e-3 0.0057-6e-3 1.4515-1.2545 1.2897-3.0381 0.34158-4.086-0.47494-0.52498-1.146-0.87765-1.9001-0.90072-0.89921 0.089-1.5945 0.45846-2.158 0.90433-0.05069 0.0361-0.12032 0.0306-0.16433-0.0134-0.59094-0.58471-1.263-0.89913-1.9162-0.91777zm-0.0098 0.3452c0.0052 2.6e-4 0.01034 1e-3 0.0155 2e-3 0.94841 0.14484 1.4605 0.57114 1.9906 1.094 0.616-0.57523 1.4441-1.0791 2.2283-1.0682h0.0021c0.65365 0.02 1.2363 0.32312 1.6542 0.78497 0.4168 0.4607 0.67569 1.0678 0.66042 1.7089-0.01527 0.64116-0.30786 1.3112-0.96893 1.8826l-0.0021 2e-3 -3.484 3.4845c-0.0497 0.0494-0.13013 0.0494-0.17984 0l-3.4747-3.4748c-7.94e-4 -5.3e-4 -0.0013-1e-3 -0.0021-2e-3 -1.0541-1.0876-1.1258-2.1903-0.71882-3.0272 0.40875-0.84054 1.3203-1.4138 2.2794-1.3865z" color="#000000" color-rendering="auto" dominant-baseline="auto" image-rendering="auto" shape-rendering="auto" solid-color="#000000" style="font-feature-settings:normal;font-variant-alternates:normal;font-variant-caps:normal;font-variant-ligatures:normal;font-variant-numeric:normal;font-variant-position:normal;isolation:auto;mix-blend-mode:normal;shape-padding:0;text-decoration-color:#000000;text-decoration-line:none;text-decoration-style:solid;text-indent:0;text-orientation:mixed;text-transform:none;white-space:normal"/>
 </g>
</svg>
