<?xml version="1.0" encoding="UTF-8" standalone="no"?>
<!-- Created with Inkscape (http://www.inkscape.org/) -->
<svg xmlns:rdf="http://www.w3.org/1999/02/22-rdf-syntax-ns#" xmlns="http://www.w3.org/2000/svg" height="8.3mm" width="21.7mm" version="1.1" xmlns:cc="http://creativecommons.org/ns#" xmlns:dc="http://purl.org/dc/elements/1.1/" viewBox="0 0 21.7 8.3000001">
 <metadata>
  <rdf:RDF>
   <cc:Work rdf:about="">
    <dc:format>image/svg+xml</dc:format>
    <dc:type rdf:resource="http://purl.org/dc/dcmitype/StillImage"/>
    <dc:title/>
   </cc:Work>
  </rdf:RDF>
 </metadata>
 <g transform="translate(-.11952 -288.47)">
  <path d="m7.6194 288.52c-1.9442 0.11653-2.5933 0.65782-3.5736 1.4759-0.61659 0.61906-0.58475 1.1107-0.060263 1.5666 0.44341 0.22715 0.97337 0.39623 1.3933 0.52218 1.0661 0.31781 1.4821 0.80285 1.3031 1.3516-0.2169 0.38057-0.64667 0.79574-1.1914 1.1814-1.2523 0.86965-2.9168 1.4605-4.3328 1.3755-0.80333-0.1451-0.24821-1.0581 1.8388-2.2956 1.4692-0.89448 1.3709-0.90122 0.1231-0.33625-1.0439 0.54599-2.8604 1.423-2.9488 2.5335v0.00052c-0.028676 0.25248 0.10606 0.44309 0.25548 0.61286 0.76251 0.77245 4.9473-0.46976 6.39-1.8967 0.38171-0.33656 0.56855-0.80962 0.66393-1.1676 0-0.91742-0.32867-1.0016-0.67475-1.1992-0.42385-0.24204-0.94806-0.33788-1.3232-0.43253-1.275-0.31753-1.5245-0.88092-0.70514-1.5915 1.5867-1.3761 4.1982-1.7429 2.8324-0.39788-0.46288 0.47371-0.95595 0.91252-1.4664 0.62101-0.57402 0.56775 0.024835 0.86468 0.50786 0.73666 0.73213-0.21481 1.5552-0.80949 1.7502-1.4173 0.25088-0.78181-0.074436-1.2088-0.78188-1.2431zm14.154 2.6058c-0.06177 0.0242-0.56791 0.60116-1.5648 1.7617-1.0616 1.1437-1.7944 1.57-1.5169 1.026 0.13269-0.23555 0.43098-0.72389 0.56298-0.89052 0.17999-0.22632 0.63994-0.61915 0.20809-0.7336-0.60797-0.34718-0.17854-0.0446-1.5478 1.3098-1.214 1.2008-1.3881 1.0667-0.15092-0.8411 0.41798-0.41342 0.39446-0.47398 0.22251-0.71323-0.1921-0.19-0.36656-0.15147-0.7515 0.19309-0.27164 0.24314-0.78261 0.38787-1.2099 0.34438-0.14176-0.0403-0.24589-0.0693-0.34562-0.0968 0.14635-0.36982-0.333-0.31565-0.45224-0.12939-0.03496 0.15527 0.10347 0.37878 0.01699 0.54001-0.51637 0.77065-1.5489 2.0673-2.0788 1.616-0.23758-0.87699 1.4135-2.3705 1.8311-2.3705 1.6372-0.2322 0.89174-0.33024 0.10817-0.27408-0.48877 0.0507-0.83639 0.33626-1.0806 0.4748h-0.000515c-0.6647 0.50986-1.5043 0.91504-2.4425 1.6338-0.32549 0.24935-0.50786 0.36415-0.54495 0.31994-0.13312-0.48964 0.42541-0.92637 0.65724-1.2578 0.60414-0.8623 0.34748-1.5376-0.38373-0.93738-0.13167 0.10809-0.22342 0.2211-0.26887 0.31332-0.4746 0.37599-0.98303 0.69082-1.4087 1.0174 0.051362-0.14684 0.26661-0.44358 0.52177-0.71222 0.58607-0.61068 0.57104-0.93059 0.02008-0.8788-0.13072 0.0569-0.19269 0.003-0.47902 0.28631-0.6354 0.62846-1.831 2.5808-1.3964 2.829 0.26777 0.15292 0.73697-0.48886 1.1146-1.0286 0.42547-0.45166 0.93016-0.82341 1.4298-1.1493 0.4846-0.27672-0.07804 0.39233-0.20655 0.57109-0.28534 0.35879-0.5192 0.87104-0.5192 1.1386 0 0.35398 0.16193 0.50307 0.45069 0.45341 0.46796-0.12547 0.90569-0.4755 1.2068-0.73513l0.68299-0.59301 0.50426-0.36629c-0.42995 0.46936-0.51824 1.4093-0.1947 1.5941 0.65067 0.13762 0.98959 0.058 1.538-0.23486 0.46041-0.31274 0.80856-0.72955 1.1048-1.077 0.27266-0.31973 0.6407-0.93023 1.248-0.76928 0.26967 0.0264 0.27943 0.1616 0.08654 0.51811-0.26584 0.41052-0.8458 1.7753-0.10302 1.5915 0.21396-0.0403 0.48372-0.1892 0.79219-0.47583 0.47826-0.44437 0.86824-1.1103 0.63148-0.23638-0.20083 0.85096 0.52038 0.86488 0.97195 0.41825 0.53643-0.53057 0.9328-0.90421 1.6343-1.8957 0.7809-1.0496 1.1635-1.5781 1.1017-1.5538z" stroke-width=".26227"/>
 </g>
</svg>
