<?xml version="1.0" encoding="UTF-8" standalone="no"?>
<!-- Created with Inkscape (http://www.inkscape.org/) -->

<svg
   xmlns:dc="http://purl.org/dc/elements/1.1/"
   xmlns:cc="http://creativecommons.org/ns#"
   xmlns:rdf="http://www.w3.org/1999/02/22-rdf-syntax-ns#"
   xmlns:svg="http://www.w3.org/2000/svg"
   xmlns="http://www.w3.org/2000/svg"
   xmlns:sodipodi="http://sodipodi.sourceforge.net/DTD/sodipodi-0.dtd"
   xmlns:inkscape="http://www.inkscape.org/namespaces/inkscape"
   width="21.683578mm"
   height="8.2433681mm"
   viewBox="0 0 21.683578 8.2433681"
   version="1.1"
   id="svg5127"
   inkscape:version="0.92.2 (5c3e80d, 2017-08-06)"
   sodipodi:docname="logo.svg">
  <defs
     id="defs5121" />
  <sodipodi:namedview
     id="base"
     pagecolor="#ffffff"
     bordercolor="#666666"
     borderopacity="1.0"
     inkscape:pageopacity="0.0"
     inkscape:pageshadow="2"
     inkscape:zoom="5.6"
     inkscape:cx="-3.2350633"
     inkscape:cy="38.461036"
     inkscape:document-units="mm"
     inkscape:current-layer="layer1"
     showgrid="false"
     inkscape:window-width="1600"
     inkscape:window-height="837"
     inkscape:window-x="1792"
     inkscape:window-y="1072"
     inkscape:window-maximized="1"
     fit-margin-bottom="-0.1"
     fit-margin-top="0"
     fit-margin-left="0"
     fit-margin-right="0" />
  <metadata
     id="metadata5124">
    <rdf:RDF>
      <cc:Work
         rdf:about="">
        <dc:format>image/svg+xml</dc:format>
        <dc:type
           rdf:resource="http://purl.org/dc/dcmitype/StillImage" />
        <dc:title></dc:title>
      </cc:Work>
    </rdf:RDF>
  </metadata>
  <g
     inkscape:label="Calque 1"
     inkscape:groupmode="layer"
     id="layer1"
     transform="translate(-0.1195208,-288.52884)">
    <path
       style="fill:#000000;fill-opacity:1;stroke-width:0.26458332"
       d="m 7.5968417,288.52884 c -1.9505849,0.11821 -2.6018189,0.66727 -3.585313,1.49707 -0.6186109,0.62795 -0.586662,1.12664 -0.06046,1.58905 0.4448641,0.23042 0.976562,0.40192 1.397847,0.52968 1.0695651,0.32238 1.4870091,0.81438 1.307415,1.37098 -0.2176151,0.38604 -0.648788,0.80717 -1.1952769,1.19837 -1.2563571,0.88213 -2.9263391,1.48148 -4.3470221,1.39527 -0.80596604,-0.14718 -0.24902604,-1.07328 1.8448501,-2.32854 1.474022,-0.90732 1.3754258,-0.91416 0.1235069,-0.34107 -1.047317,0.55383 -2.87029804,1.44351 -2.95897404,2.56991 -5e-6,1.7e-4 5e-6,3.4e-4 0,5e-4 -0.02877,0.25611 0.106407,0.44946 0.256319,0.62167 0.76501104,0.78354 4.96356804,-0.4765 6.41097914,-1.92391 0.382959,-0.34139 0.5704099,-0.82125 0.6661089,-1.18442 0,-0.93059 -0.329374,-1.01627 -0.676592,-1.21673 -0.4252391,-0.24552 -0.9515379,-0.34246 -1.3279329,-0.43847 -1.2791411,-0.32209 -1.5295321,-0.89357 -0.7074511,-1.61437 1.59194,-1.39582 4.211998,-1.76793 2.841686,-0.4036 -0.4643989,0.48051 -0.959084,0.92562 -1.4712279,0.62993 -0.5759,0.5759 0.0254,0.87709 0.510014,0.74724 0.7345289,-0.2179 1.5602929,-0.82113 1.7559659,-1.43764 0.2517,-0.79303 -0.07468,-1.22616 -0.784448,-1.26089 z m 6.4249303,3.87728 c -0.666877,0.51719 -1.50972,0.92818 -2.451012,1.65727 -0.32656,0.25293 -0.509008,0.36937 -0.546222,0.32453 -0.133557,-0.49667 0.426297,-0.93967 0.65888,-1.2759 0.606121,-0.87469 0.34862,-1.55969 -0.38499,-0.95085 -0.132098,0.10964 -0.224155,0.22427 -0.269751,0.31781 -0.476156,0.38139 -0.986247,0.70075 -1.4133473,1.03198 0.05153,-0.14894 0.267486,-0.44994 0.5234843,-0.72243 0.587992,-0.61945 0.573164,-0.94414 0.02041,-0.8916 -0.131152,0.0577 -0.1931103,0.003 -0.4803773,0.29065 -0.637481,0.63748 -1.837146,2.61801 -1.401062,2.86978 0.268649,0.15511 0.739498,-0.49608 1.118391,-1.04354 0.426868,-0.45814 0.9332103,-0.83524 1.4345343,-1.16583 0.486186,-0.2807 -0.07829,0.39797 -0.207217,0.5793 -0.286279,0.36394 -0.520898,0.88355 -0.520898,1.15497 0,0.35906 0.162459,0.51029 0.452167,0.45992 0.469496,-0.12727 0.908673,-0.48232 1.210787,-0.74568 l 0.685229,-0.60151 0.505912,-0.37155 c -0.43136,0.4761 -0.520167,1.42932 -0.19556,1.61673 0.652806,0.1396 0.992926,0.0589 1.543151,-0.23813 0.461917,-0.31723 0.811042,-0.74007 1.10829,-1.09248 0.27356,-0.32432 0.642983,-0.94361 1.252301,-0.78034 0.270554,0.0268 0.28005,0.16406 0.08652,0.52569 -0.266708,0.41641 -0.848586,1.8008 -0.10336,1.61437 0.214665,-0.0409 0.485304,-0.19192 0.794785,-0.48266 0.47983,-0.45075 0.871463,-1.1261 0.633925,-0.23959 -0.201486,0.86318 0.521991,0.877 0.975033,0.42396 0.538188,-0.53819 0.935587,-0.91708 1.639421,-1.92276 1.56692,-2.12946 1.535745,-2.14351 -0.464572,0.21084 -1.065051,1.16013 -1.800333,1.59257 -1.52187,1.04076 0.133127,-0.23894 0.43239,-0.73429 0.564825,-0.90331 0.180584,-0.22957 0.642042,-0.62804 0.208774,-0.74414 -0.609964,-0.35216 -0.179126,-0.0452 -1.552878,1.3286 -1.218018,1.21802 -1.392651,1.082 -0.151412,-0.85317 0.419349,-0.41935 0.396047,-0.48087 0.223539,-0.72356 -0.19273,-0.19273 -0.368067,-0.15356 -0.754263,0.19594 -0.272529,0.24664 -0.785172,0.39344 -1.213879,0.34933 -0.14223,-0.0409 -0.246701,-0.0703 -0.34675,-0.0982 0.14683,-0.37513 -0.333922,-0.32016 -0.453546,-0.13123 -0.03508,0.1575 0.103647,0.38442 0.01689,0.54797 -0.518061,0.78171 -1.553833,2.09701 -2.085497,1.63917 -0.238362,-0.88958 1.418201,-2.4046 1.837203,-2.4046 1.642596,-0.23553 0.894395,-0.33517 0.108253,-0.27821 -0.49037,0.0514 -0.839183,0.34117 -1.084225,0.4817 z"
       id="path3718"
       inkscape:connector-curvature="0"
       sodipodi:nodetypes="cccccccccccccccccccccccccccccccccccccsccccccscccccccccccccccccccccccc" />
  </g>
</svg>
